<svg width="62" height="38" viewBox="0 0 62 38" fill="none" xmlns="http://www.w3.org/2000/svg">
<path d="M14.3302 15.0493L0.981725 35.962C0.556833 36.6276 1.03494 37.5 1.82465 37.5H51.9208C52.6547 37.5 53.1386 36.7358 52.8248 36.0724L36.8228 2.2396C36.4766 1.50761 35.4494 1.46912 35.0493 2.17316L24.1484 21.3588C23.8222 21.9329 23.0388 22.0388 22.5719 21.5719L15.8802 14.8802C15.4283 14.4283 14.6741 14.5105 14.3302 15.0493Z" fill="#115d56"/>
<path d="M22.3302 15.0493L8.98172 35.962C8.55683 36.6276 9.03494 37.5 9.82465 37.5H59.9208C60.6547 37.5 61.1386 36.7358 60.8248 36.0724L44.8228 2.2396C44.4766 1.50761 43.4494 1.46912 43.0493 2.17316L32.1484 21.3588C31.8222 21.9329 31.0388 22.0388 30.5719 21.5719L23.8802 14.8802C23.4283 14.4283 22.6741 14.5105 22.3302 15.0493Z" fill="#214540"/>
</svg>
