<svg width="279" height="38" viewBox="0 0 279 38" fill="none" xmlns="http://www.w3.org/2000/svg">
<path d="M80.0987 32.5H76.7209L84.3107 11.4091H87.9872L95.5771 32.5H92.1992L86.2365 15.2401H86.0717L80.0987 32.5ZM80.6651 24.2408H91.6225V26.9183H80.6651V24.2408ZM104.042 32.8089C102.765 32.8089 101.626 32.4828 100.623 31.8306C99.6277 31.1715 98.8451 30.2344 98.2752 29.0192C97.7122 27.7971 97.4308 26.3313 97.4308 24.6218C97.4308 22.9123 97.7157 21.4499 98.2855 20.2347C98.8622 19.0195 99.6518 18.0893 100.654 17.4439C101.656 16.7985 102.793 16.4759 104.063 16.4759C105.045 16.4759 105.834 16.6406 106.431 16.9702C107.036 17.2928 107.502 17.6705 107.832 18.103C108.168 18.5355 108.429 18.9165 108.615 19.2461H108.8V11.4091H111.879V32.5H108.872V30.0387H108.615C108.429 30.3751 108.162 30.7596 107.811 31.1921C107.468 31.6246 106.994 32.0022 106.39 32.3249C105.786 32.6476 105.003 32.8089 104.042 32.8089ZM104.722 30.1829C105.608 30.1829 106.356 29.9495 106.967 29.4826C107.585 29.0089 108.052 28.3532 108.368 27.5156C108.69 26.678 108.852 25.7031 108.852 24.5909C108.852 23.4924 108.694 22.5312 108.378 21.7074C108.062 20.8835 107.599 20.2416 106.988 19.7816C106.377 19.3216 105.621 19.0916 104.722 19.0916C103.795 19.0916 103.023 19.3319 102.405 19.8125C101.787 20.2931 101.32 20.9487 101.004 21.7795C100.695 22.6102 100.541 23.5473 100.541 24.5909C100.541 25.6482 100.699 26.5991 101.015 27.4435C101.33 28.288 101.797 28.9574 102.415 29.4517C103.04 29.9392 103.809 30.1829 104.722 30.1829ZM129.806 16.6818L124.07 32.5H120.774L115.028 16.6818H118.334L122.34 28.8544H122.505L126.5 16.6818H129.806ZM138.979 32.8192C137.421 32.8192 136.079 32.4863 134.953 31.8203C133.834 31.1475 132.968 30.2035 132.357 28.9883C131.753 27.7662 131.451 26.3348 131.451 24.6939C131.451 23.0736 131.753 21.6456 132.357 20.4098C132.968 19.174 133.82 18.2094 134.911 17.516C136.01 16.8226 137.294 16.4759 138.763 16.4759C139.655 16.4759 140.521 16.6235 141.358 16.9187C142.196 17.2139 142.948 17.6773 143.613 18.3089C144.279 18.9406 144.805 19.761 145.189 20.7702C145.574 21.7726 145.766 22.9912 145.766 24.4261V25.5178H133.192V23.2109H142.748C142.748 22.4008 142.584 21.6834 142.254 21.0586C141.925 20.427 141.461 19.9292 140.864 19.5653C140.273 19.2015 139.58 19.0195 138.784 19.0195C137.919 19.0195 137.163 19.2324 136.518 19.658C135.879 20.0768 135.385 20.6261 135.035 21.3058C134.692 21.9786 134.52 22.7098 134.52 23.4993V25.3015C134.52 26.3588 134.705 27.2582 135.076 27.9996C135.454 28.7411 135.979 29.3075 136.652 29.6989C137.325 30.0833 138.111 30.2756 139.01 30.2756C139.594 30.2756 140.126 30.1932 140.606 30.0284C141.087 29.8568 141.502 29.6027 141.852 29.2663C142.203 28.9299 142.47 28.5146 142.656 28.0202L145.57 28.5455C145.337 29.4036 144.918 30.1554 144.314 30.8008C143.716 31.4393 142.965 31.937 142.058 32.294C141.159 32.6442 140.133 32.8192 138.979 32.8192ZM152.261 23.108V32.5H149.182V16.6818H152.138V19.2564H152.334C152.697 18.4188 153.267 17.746 154.043 17.2379C154.826 16.7299 155.811 16.4759 156.999 16.4759C158.077 16.4759 159.021 16.7024 159.831 17.1555C160.641 17.6018 161.269 18.2678 161.715 19.1534C162.162 20.0391 162.385 21.1341 162.385 22.4386V32.5H159.305V22.8093C159.305 21.6628 159.007 20.7668 158.41 20.1214C157.812 19.4692 156.992 19.1431 155.948 19.1431C155.234 19.1431 154.599 19.2976 154.043 19.6065C153.494 19.9155 153.058 20.3686 152.735 20.9659C152.419 21.5563 152.261 22.2704 152.261 23.108ZM173.898 16.6818V19.1534H165.258V16.6818H173.898ZM167.575 12.892H170.654V27.8555C170.654 28.4528 170.743 28.9025 170.922 29.2045C171.1 29.4998 171.33 29.7023 171.612 29.8121C171.9 29.9151 172.213 29.9666 172.549 29.9666C172.796 29.9666 173.013 29.9495 173.198 29.9151C173.383 29.8808 173.527 29.8533 173.63 29.8327L174.187 32.3764C174.008 32.4451 173.754 32.5137 173.424 32.5824C173.095 32.6579 172.683 32.6991 172.189 32.706C171.379 32.7197 170.623 32.5755 169.923 32.2734C169.223 31.9714 168.656 31.5045 168.224 30.8729C167.791 30.2412 167.575 29.4483 167.575 28.494V12.892ZM187.325 25.94V16.6818H190.414V32.5H187.386V29.7607H187.222C186.858 30.6051 186.274 31.3088 185.471 31.8718C184.674 32.4279 183.682 32.706 182.495 32.706C181.479 32.706 180.579 32.4828 179.797 32.0366C179.021 31.5835 178.41 30.9141 177.963 30.0284C177.524 29.1428 177.304 28.0477 177.304 26.7433V16.6818H180.384V26.3725C180.384 27.4504 180.682 28.3086 181.279 28.9471C181.877 29.5856 182.653 29.9048 183.607 29.9048C184.184 29.9048 184.757 29.7607 185.327 29.4723C185.903 29.1839 186.381 28.748 186.758 28.1644C187.143 27.5808 187.331 26.8394 187.325 25.94ZM194.551 32.5V16.6818H197.528V19.1946H197.692C197.981 18.3433 198.489 17.6739 199.217 17.1864C199.951 16.6921 200.782 16.445 201.709 16.445C201.901 16.445 202.128 16.4518 202.388 16.4656C202.656 16.4793 202.866 16.4964 203.017 16.517V19.4624C202.893 19.428 202.673 19.3903 202.358 19.3491C202.042 19.301 201.726 19.277 201.41 19.277C200.682 19.277 200.034 19.4315 199.464 19.7404C198.901 20.0425 198.454 20.4647 198.125 21.0071C197.795 21.5426 197.631 22.1536 197.631 22.8402V32.5H194.551ZM211.932 32.8192C210.374 32.8192 209.032 32.4863 207.906 31.8203C206.787 31.1475 205.922 30.2035 205.311 28.9883C204.706 27.7662 204.404 26.3348 204.404 24.6939C204.404 23.0736 204.706 21.6456 205.311 20.4098C205.922 19.174 206.773 18.2094 207.865 17.516C208.963 16.8226 210.247 16.4759 211.716 16.4759C212.609 16.4759 213.474 16.6235 214.311 16.9187C215.149 17.2139 215.901 17.6773 216.567 18.3089C217.233 18.9406 217.758 19.761 218.142 20.7702C218.527 21.7726 218.719 22.9912 218.719 24.4261V25.5178H206.145V23.2109H215.702C215.702 22.4008 215.537 21.6834 215.207 21.0586C214.878 20.427 214.414 19.9292 213.817 19.5653C213.227 19.2015 212.533 19.0195 211.737 19.0195C210.872 19.0195 210.116 19.2324 209.471 19.658C208.833 20.0768 208.338 20.6261 207.988 21.3058C207.645 21.9786 207.473 22.7098 207.473 23.4993V25.3015C207.473 26.3588 207.659 27.2582 208.029 27.9996C208.407 28.7411 208.932 29.3075 209.605 29.6989C210.278 30.0833 211.064 30.2756 211.963 30.2756C212.547 30.2756 213.079 30.1932 213.559 30.0284C214.04 29.8568 214.455 29.6027 214.806 29.2663C215.156 28.9299 215.423 28.5146 215.609 28.0202L218.523 28.5455C218.29 29.4036 217.871 30.1554 217.267 30.8008C216.67 31.4393 215.918 31.937 215.012 32.294C214.112 32.6442 213.086 32.8192 211.932 32.8192ZM236.656 18.0721C236.457 17.4473 236.189 16.8878 235.853 16.3935C235.523 15.8923 235.128 15.4666 234.668 15.1165C234.208 14.7595 233.683 14.4883 233.093 14.3029C232.509 14.1175 231.867 14.0249 231.167 14.0249C229.979 14.0249 228.908 14.3304 227.954 14.9414C227 15.5524 226.244 16.4484 225.688 17.6293C225.139 18.8033 224.864 20.2416 224.864 21.9442C224.864 23.6538 225.142 25.099 225.699 26.2798C226.255 27.4607 227.017 28.3567 227.985 28.9677C228.953 29.5787 230.055 29.8842 231.291 29.8842C232.437 29.8842 233.436 29.6508 234.287 29.1839C235.146 28.7171 235.808 28.058 236.275 27.2067C236.749 26.3485 236.986 25.3393 236.986 24.179L237.809 24.3335H231.775V21.7074H240.065V24.1069C240.065 25.8782 239.687 27.4161 238.932 28.7205C238.184 30.0181 237.147 31.0205 235.822 31.7276C234.504 32.4348 232.993 32.7884 231.291 32.7884C229.382 32.7884 227.707 32.349 226.265 31.4702C224.83 30.5914 223.711 29.3453 222.908 27.7319C222.104 26.1116 221.703 24.1893 221.703 21.9648C221.703 20.2828 221.936 18.7724 222.403 17.4336C222.87 16.0948 223.526 14.9586 224.37 14.0249C225.221 13.0843 226.22 12.3668 227.367 11.8725C228.52 11.3713 229.78 11.1207 231.146 11.1207C232.286 11.1207 233.347 11.2889 234.329 11.6254C235.317 11.9618 236.196 12.4389 236.965 13.0568C237.741 13.6747 238.383 14.4093 238.891 15.2607C239.399 16.1051 239.742 17.0423 239.921 18.0721H236.656ZM243.857 32.5V16.6818H246.833V19.1946H246.998C247.286 18.3433 247.794 17.6739 248.522 17.1864C249.257 16.6921 250.088 16.445 251.014 16.445C251.207 16.445 251.433 16.4518 251.694 16.4656C251.962 16.4793 252.171 16.4964 252.322 16.517V19.4624C252.199 19.428 251.979 19.3903 251.663 19.3491C251.347 19.301 251.032 19.277 250.716 19.277C249.988 19.277 249.339 19.4315 248.769 19.7404C248.206 20.0425 247.76 20.4647 247.431 21.0071C247.101 21.5426 246.936 22.1536 246.936 22.8402V32.5H243.857ZM254.987 32.5V16.6818H258.066V32.5H254.987ZM256.542 14.2411C256.006 14.2411 255.546 14.0626 255.162 13.7056C254.784 13.3417 254.596 12.9092 254.596 12.408C254.596 11.9 254.784 11.4674 255.162 11.1104C255.546 10.7466 256.006 10.5646 256.542 10.5646C257.078 10.5646 257.534 10.7466 257.912 11.1104C258.296 11.4674 258.488 11.9 258.488 12.408C258.488 12.9092 258.296 13.3417 257.912 13.7056C257.534 14.0626 257.078 14.2411 256.542 14.2411ZM268.13 32.8089C266.853 32.8089 265.713 32.4828 264.711 31.8306C263.716 31.1715 262.933 30.2344 262.363 29.0192C261.8 27.7971 261.519 26.3313 261.519 24.6218C261.519 22.9123 261.804 21.4499 262.373 20.2347C262.95 19.0195 263.74 18.0893 264.742 17.4439C265.744 16.7985 266.881 16.4759 268.151 16.4759C269.133 16.4759 269.922 16.6406 270.519 16.9702C271.124 17.2928 271.59 17.6705 271.92 18.103C272.256 18.5355 272.517 18.9165 272.703 19.2461H272.888V11.4091H275.967V32.5H272.96V30.0387H272.703C272.517 30.3751 272.249 30.7596 271.899 31.1921C271.556 31.6246 271.082 32.0022 270.478 32.3249C269.874 32.6476 269.091 32.8089 268.13 32.8089ZM268.81 30.1829C269.695 30.1829 270.444 29.9495 271.055 29.4826C271.673 29.0089 272.14 28.3532 272.455 27.5156C272.778 26.678 272.939 25.7031 272.939 24.5909C272.939 23.4924 272.782 22.5312 272.466 21.7074C272.15 20.8835 271.686 20.2416 271.075 19.7816C270.464 19.3216 269.709 19.0916 268.81 19.0916C267.883 19.0916 267.111 19.3319 266.493 19.8125C265.875 20.2931 265.408 20.9487 265.092 21.7795C264.783 22.6102 264.629 23.5473 264.629 24.5909C264.629 25.6482 264.787 26.5991 265.102 27.4435C265.418 28.288 265.885 28.9574 266.503 29.4517C267.128 29.9392 267.897 30.1829 268.81 30.1829Z" fill="white"/>
<path d="M14.3302 15.0493L0.981725 35.962C0.556833 36.6276 1.03494 37.5 1.82465 37.5H51.9208C52.6547 37.5 53.1386 36.7358 52.8248 36.0724L36.8228 2.2396C36.4766 1.50761 35.4494 1.46912 35.0493 2.17316L24.1484 21.3588C23.8222 21.9329 23.0388 22.0388 22.5719 21.5719L15.8802 14.8802C15.4283 14.4283 14.6741 14.5105 14.3302 15.0493Z" fill="white" fill-opacity="0.4"/>
<path d="M22.3302 15.0493L8.98172 35.962C8.55683 36.6276 9.03494 37.5 9.82465 37.5H59.9208C60.6547 37.5 61.1386 36.7358 60.8248 36.0724L44.8228 2.2396C44.4766 1.50761 43.4494 1.46912 43.0493 2.17316L32.1484 21.3588C31.8222 21.9329 31.0388 22.0388 30.5719 21.5719L23.8802 14.8802C23.4283 14.4283 22.6741 14.5105 22.3302 15.0493Z" fill="white"/>
</svg>
